<svg width="233" height="213" viewBox="0 0 233 213" fill="none" xmlns="http://www.w3.org/2000/svg">
<g clip-path="url(#clip0_806_96)">
<path d="M232 1H1V212H232V1Z" stroke="black" stroke-width="2"/>
<mask id="mask0_806_96" style="mask-type:luminance" maskUnits="userSpaceOnUse" x="43" y="53" width="148" height="107">
<path d="M191 53H43V160H191V53Z" fill="white"/>
</mask>
<g mask="url(#mask0_806_96)">
<path d="M53.7537 53.5916H65.6181L92.8623 143.774L90.3722 160.239L53.7537 53.5916ZM119.374 50.2683L120.546 62.5041L94.7664 143.472C94.7664 143.472 94.5223 144.378 94.0341 146.191C93.5458 147.903 93.0576 150.068 92.5693 152.686C92.0811 155.204 91.7881 157.721 91.6905 160.239H90.3722L87.7357 146.795L118.056 50.2683H119.374ZM119.374 50.4194L150.134 139.393L146.911 160.239L114.394 66.7337L119.374 50.4194ZM178.843 53.5916L151.452 143.472C151.452 143.472 151.208 144.378 150.72 146.191C150.231 148.003 149.694 150.219 149.108 152.837C148.62 155.355 148.327 157.822 148.23 160.239H146.911L145.154 145.284L170.64 53.5916H178.843ZM167.857 63.5615C168.638 60.5403 168.394 58.2241 167.125 56.6128C165.855 55.0015 164.244 54.1958 162.291 54.1958H160.973V52.6852H189.828V54.1958C189.828 54.1958 189.633 54.1958 189.242 54.1958C188.852 54.1958 188.656 54.1958 188.656 54.1958C186.41 54.1958 183.969 54.9511 181.333 56.4617C178.696 57.8716 176.841 60.2382 175.767 63.5615H167.857ZM68.694 63.5615H57.1226C55.9508 60.2382 54.0466 57.8716 51.4101 56.4617C48.8712 54.9511 46.4788 54.1958 44.2328 54.1958C44.2328 54.1958 44.0375 54.1958 43.6469 54.1958C43.2563 54.1958 43.061 54.1958 43.061 54.1958V52.6852H75.5783V54.1958H74.2601C72.4047 54.1958 70.7447 55.0015 69.2799 56.6128C67.9128 58.2241 67.7175 60.5403 68.694 63.5615Z" fill="black"/>
<path d="M123.401 52.6066V160H113.731V52.6066H123.401ZM114.177 148.8V160H102.276V158.466C102.276 158.466 102.574 158.466 103.169 158.466C103.863 158.466 104.21 158.466 104.21 158.466C106.789 158.466 108.971 157.545 110.756 155.704C112.64 153.761 113.632 151.46 113.731 148.8H114.177ZM114.177 63.8062H113.731C113.632 61.1469 112.64 58.8968 110.756 57.0557C108.971 55.1124 106.789 54.1408 104.21 54.1408C104.21 54.1408 103.863 54.1408 103.169 54.1408C102.574 54.1408 102.276 54.1408 102.276 54.1408V52.6066H114.177V63.8062ZM122.954 148.8H123.401C123.5 151.46 124.442 153.761 126.227 155.704C128.111 157.545 130.343 158.466 132.921 158.466C132.921 158.466 133.219 158.466 133.814 158.466C134.409 158.466 134.756 158.466 134.855 158.466V160H122.954V148.8ZM122.954 63.8062V52.6066H134.855V54.1408C134.756 54.1408 134.409 54.1408 133.814 54.1408C133.219 54.1408 132.921 54.1408 132.921 54.1408C130.343 54.1408 128.111 55.1124 126.227 57.0557C124.442 58.8968 123.5 61.1469 123.401 63.8062H122.954Z" fill="black"/>
<path d="M173.7 123.3C174.833 123.3 175.933 123.45 177 123.75C178.067 124.05 179.05 124.467 179.95 125C180.85 125.5 181.6 126.117 182.2 126.85L181.3 132.5H180.8C180.8 130.9 180.5 129.533 179.9 128.4C179.3 127.233 178.467 126.35 177.4 125.75C176.367 125.117 175.133 124.8 173.7 124.8C171.8 124.8 170.217 125.467 168.95 126.8C167.717 128.133 167.1 129.817 167.1 131.85C167.1 133.95 167.783 135.9 169.15 137.7C170.517 139.5 172.483 141.55 175.05 143.85C175.783 144.483 176.583 145.217 177.45 146.05C178.35 146.85 179.367 147.75 180.5 148.75C181.667 149.75 182.967 150.85 184.4 152.05C185.467 152.917 186.55 153.833 187.65 154.8C188.783 155.767 189.933 156.6 191.1 157.3C192.3 158 193.533 158.4 194.8 158.5V159C194.167 159 193.25 158.983 192.05 158.95C190.883 158.917 189.583 158.683 188.15 158.25C186.717 157.817 185.283 157.017 183.85 155.85C182.583 154.817 181.417 153.867 180.35 153C179.317 152.1 178.35 151.283 177.45 150.55C176.583 149.783 175.767 149.067 175 148.4C174.233 147.7 173.483 147.017 172.75 146.35C170.817 144.55 169.167 142.933 167.8 141.5C166.467 140.033 165.433 138.55 164.7 137.05C164 135.517 163.65 133.783 163.65 131.85C163.65 130.617 163.883 129.483 164.35 128.45C164.817 127.417 165.483 126.517 166.35 125.75C167.25 124.983 168.317 124.383 169.55 123.95C170.783 123.517 172.167 123.3 173.7 123.3ZM187.5 142.55C187.867 144.383 187.967 146.133 187.8 147.8C187.633 149.467 187.217 151.017 186.55 152.45C185.917 153.85 185.033 155.083 183.9 156.15C182.8 157.217 181.483 158.05 179.95 158.65C178.417 159.217 176.7 159.5 174.8 159.5C172.867 159.5 171.083 159.333 169.45 159C167.85 158.667 166.433 158.183 165.2 157.55C163.967 156.883 162.917 156.083 162.05 155.15C161.217 154.183 160.583 153.1 160.15 151.9C159.717 150.667 159.5 149.3 159.5 147.8C159.5 146.833 159.6 145.95 159.8 145.15C160.033 144.317 160.35 143.55 160.75 142.85C161.15 142.15 161.617 141.533 162.15 141C162.717 140.433 163.333 139.917 164 139.45C164.667 138.983 165.383 138.583 166.15 138.25L166.85 139.35C166.183 139.883 165.617 140.483 165.15 141.15C164.683 141.783 164.3 142.467 164 143.2C163.7 143.9 163.483 144.65 163.35 145.45C163.217 146.217 163.15 147 163.15 147.8C163.15 149.3 163.4 150.683 163.9 151.95C164.433 153.183 165.183 154.25 166.15 155.15C167.15 156.05 168.367 156.75 169.8 157.25C171.267 157.75 172.933 158 174.8 158C176.5 158 178 157.667 179.3 157C180.633 156.3 181.733 155.4 182.6 154.3C183.5 153.167 184.167 151.917 184.6 150.55C185.033 149.183 185.217 147.817 185.15 146.45C185.083 145.05 184.75 143.75 184.15 142.55C183.817 141.883 183.383 141.333 182.85 140.9C182.35 140.467 181.7 140.25 180.9 140.25H180.15V139.75H190.1V140.25H189.35C188.617 140.25 188.083 140.467 187.75 140.9C187.45 141.333 187.367 141.883 187.5 142.55Z" fill="black"/>
</g>
</g>
<defs>
<clipPath id="clip0_806_96">
<rect width="233" height="213" fill="white"/>
</clipPath>
</defs>
</svg>
