<svg class="logo-wi" width="196" height="205" viewBox="0 0 196 205" fill="none" xmlns="http://www.w3.org/2000/svg">
    <path d="M195 102.5C195 158.61 151.968 204 99 204C46.0319 204 3 158.61 3 102.5C3 46.3904 46.0319 1 99 1C151.968 1 195 46.3904 195 102.5Z" stroke="white" stroke-width="10"/>
    
    <mask id="mask0_802_79" style="mask-type:luminance" maskUnits="userSpaceOnUse" x="25" y="59" width="148" height="107">
        <path d="M173 59H25V166H173V59Z" fill="white"/>
    </mask>

    <g mask="url(#mask0_802_79)">
        <path fill="white" d="M35.7537 59.5916H47.6181L74.8623 149.774L72.3722 166.239L35.7537 59.5916ZM101.374 56.2683L102.546 68.5041L76.7664 149.472C76.7664 149.472 76.5223 150.378 76.0341 152.191C75.5458 153.903 75.0576 156.068 74.5693 158.686C74.0811 161.204 73.7881 163.721 73.6905 166.239H72.3722L69.7357 152.795L100.056 56.2683H101.374ZM101.374 56.4194L132.134 145.393L128.911 166.239L96.394 72.7337L101.374 56.4194ZM160.843 59.5916L133.452 149.472C133.452 149.472 133.208 150.378 132.72 152.191C132.231 154.003 131.694 156.219 131.108 158.837C130.62 161.355 130.327 163.822 130.23 166.239H128.911L127.154 151.284L152.64 59.5916H160.843ZM149.857 69.5615C150.638 66.5403 150.394 64.2241 149.125 62.6128C147.855 61.0015 146.244 60.1958 144.291 60.1958H142.973V58.6852H171.828V60.1958C171.828 60.1958 171.633 60.1958 171.242 60.1958C170.852 60.1958 170.656 60.1958 170.656 60.1958C168.41 60.1958 165.969 60.9511 163.333 62.4617C160.696 63.8716 158.841 66.2382 157.767 69.5615H149.857ZM50.694 69.5615H39.1226C37.9508 66.2382 36.0466 63.8716 33.4101 62.4617C30.8712 60.9511 28.4788 60.1958 26.2328 60.1958C26.2328 60.1958 26.0375 60.1958 25.6469 60.1958C25.2563 60.1958 25.061 60.1958 25.061 60.1958V58.6852H57.5783V60.1958H56.2601C54.4047 60.1958 52.7447 61.0015 51.2799 62.6128C49.9128 64.2241 49.7175 66.5403 50.694 69.5615Z"/>

        <path fill="white" d="M105.401 58.6066V166H95.7309V58.6066H105.401ZM96.1772 154.8V166H84.2762V164.466C84.2762 164.466 84.5737 164.466 85.1688 164.466C85.863 164.466 86.2101 164.466 86.2101 164.466C88.7887 164.466 90.9705 163.545 92.7557 161.704C94.64 159.761 95.6318 157.46 95.7309 154.8H96.1772ZM96.1772 69.8062H95.7309C95.6318 67.1469 94.64 64.8968 92.7557 63.0557C90.9705 61.1124 88.7887 60.1408 86.2101 60.1408C86.2101 60.1408 85.863 60.1408 85.1688 60.1408C84.5737 60.1408 84.2762 60.1408 84.2762 60.1408V58.6066H96.1772V69.8062ZM104.954 154.8H105.401C105.5 157.46 106.442 159.761 108.227 161.704C110.111 163.545 112.343 164.466 114.921 164.466C114.921 164.466 115.219 164.466 115.814 164.466C116.409 164.466 116.756 164.466 116.855 164.466V166H104.954V154.8ZM104.954 69.8062V58.6066H116.855V60.1408C116.756 60.1408 116.409 60.1408 115.814 60.1408C115.219 60.1408 114.921 60.1408 114.921 60.1408C112.343 60.1408 110.111 61.1124 108.227 63.0557C106.442 64.8968 105.5 67.1469 105.401 69.8062H104.954Z"/>
        
        <path fill="white" d="M154.7 129.3C155.833 129.3 156.933 129.45 158 129.75C159.067 130.05 160.05 130.467 160.95 131C161.85 131.5 162.6 132.117 163.2 132.85L162.3 138.5H161.8C161.8 136.9 161.5 135.533 160.9 134.4C160.3 133.233 159.467 132.35 158.4 131.75C157.367 131.117 156.133 130.8 154.7 130.8C152.8 130.8 151.217 131.467 149.95 132.8C148.717 134.133 148.1 135.817 148.1 137.85C148.1 139.95 148.783 141.9 150.15 143.7C151.517 145.5 153.483 147.55 156.05 149.85C156.783 150.483 157.583 151.217 158.45 152.05C159.35 152.85 160.367 153.75 161.5 154.75C162.667 155.75 163.967 156.85 165.4 158.05C166.467 158.917 167.55 159.833 168.65 160.8C169.783 161.767 170.933 162.6 172.1 163.3C173.3 164 174.533 164.4 175.8 164.5V165C175.167 165 174.25 164.983 173.05 164.95C171.883 164.917 170.583 164.683 169.15 164.25C167.717 163.817 166.283 163.017 164.85 161.85C163.583 160.817 162.417 159.867 161.35 159C160.317 158.1 159.35 157.283 158.45 156.55C157.583 155.783 156.767 155.067 156 154.4C155.233 153.7 154.483 153.017 153.75 152.35C151.817 150.55 150.167 148.933 148.8 147.5C147.467 146.033 146.433 144.55 145.7 143.05C145 141.517 144.65 139.783 144.65 137.85C144.65 136.617 144.883 135.483 145.35 134.45C145.817 133.417 146.483 132.517 147.35 131.75C148.25 130.983 149.317 130.383 150.55 129.95C151.783 129.517 153.167 129.3 154.7 129.3ZM168.5 148.55C168.867 150.383 168.967 152.133 168.8 153.8C168.633 155.467 168.217 157.017 167.55 158.45C166.917 159.85 166.033 161.083 164.9 162.15C163.8 163.217 162.483 164.05 160.95 164.65C159.417 165.217 157.7 165.5 155.8 165.5C153.867 165.5 152.083 165.333 150.45 165C148.85 164.667 147.433 164.183 146.2 163.55C144.967 162.883 143.917 162.083 143.05 161.15C142.217 160.183 141.583 159.1 141.15 157.9C140.717 156.667 140.5 155.3 140.5 153.8C140.5 152.833 140.6 151.95 140.8 151.15C141.033 150.317 141.35 149.55 141.75 148.85C142.15 148.15 142.617 147.533 143.15 147C143.717 146.433 144.333 145.917 145 145.45C145.667 144.983 146.383 144.583 147.15 144.25L147.85 145.35C147.183 145.883 146.617 146.483 146.15 147.15C145.683 147.783 145.3 148.467 145 149.2C144.7 149.9 144.483 150.65 144.35 151.45C144.217 152.217 144.15 153 144.15 153.8C144.15 155.3 144.4 156.683 144.9 157.95C145.433 159.183 146.183 160.25 147.15 161.15C148.15 162.05 149.367 162.75 150.8 163.25C152.267 163.75 153.933 164 155.8 164C157.5 164 159 163.667 160.3 163C161.633 162.3 162.733 161.4 163.6 160.3C164.5 159.167 165.167 157.917 165.6 156.55C166.033 155.183 166.217 153.817 166.15 152.45C166.083 151.05 165.75 149.75 165.15 148.55C164.817 147.883 164.383 147.333 163.85 146.9C163.35 146.467 162.7 146.25 161.9 146.25H161.15V145.75H171.1V146.25H170.35C169.617 146.25 169.083 146.467 168.75 146.9C168.45 147.333 168.367 147.883 168.5 148.55Z"/>
    </g>
</svg>
